# xmcd
# Track frame offsets:
# 150
# 19441
# 37230
# 64808
# 83589
# 105116
# 122720
# 150950
# 172100
# 187903
# 206789
# 235904
# 248198
#
# Disc length: 3647 seconds
# Revision: 0
# Processed by: cddbd v1.5.2PL0 Copyright (c) Steve Scherf et al.
# Submitted via: VisiTrax 2.10.0.248 - For more info visit www.synapsa.com
#
DISCID=a70e3d0d
DTITLE=Dave Gross - Take The Gamble
DYEAR=2006
DGENRE=Blues
TTITLE0=She Walks Right In
TTITLE1=Mess On My Plate
TTITLE2=I'm Leavin' Baby
TTITLE3=I'm So Hungry Blues
TTITLE4=Swingin' On All Six
TTITLE5=Walkin In A Daze
TTITLE6=That's All You Get
TTITLE7=You Ain't Playin' Me No More
TTITLE8=I Know Your Wig Is Gone
TTITLE9=After You've Gone
TTITLE10=Movin' On Down The Line
TTITLE11=Once Had A Girl
TTITLE12=Make Things Right
EXTD=
EXTT0=
EXTT1=
EXTT2=
EXTT3=
EXTT4=
EXTT5=
EXTT6=
EXTT7=
EXTT8=
EXTT9=
EXTT10=
EXTT11=
EXTT12=
PLAYORDER=
